<svg width="640" height="640" xmlns="http://www.w3.org/2000/svg">

 <g>
  <title>background</title>
  <rect fill="none" id="canvas_background" height="642" width="642" y="-1" x="-1"/>
 </g>
 <g>
  <title>Layer 1</title>
  <g id="svg_1">
   <g id="svg_2">
    <path id="svg_3" fill="#9dc6fb" d="m513.582,433.124l-184.938,0c-12.408,0 -22.467,10.059 -22.467,22.467l0,40.752l229.872,0l0,-40.752c0,-12.408 -10.059,-22.467 -22.467,-22.467z"/>
    <path id="svg_4" fill="#80b4fb" d="m377.857,433.121c-12.41,0 -22.47,10.06 -22.47,22.47l0,40.75l-49.21,0l0,-40.75c0,-12.41 10.06,-22.47 22.46,-22.47l49.22,0z"/>
    <g id="svg_5">
     <path id="svg_6" fill="#c6865c" d="m206.181,532.161c-16.162,0 -29.264,-13.102 -29.264,-29.264l0,-214.205l58.527,0l0,214.205c0,16.162 -13.101,29.264 -29.263,29.264z"/>
     <path id="svg_7" fill="#aa7a63" d="m218.447,529.458c-3.73,1.74 -7.89,2.7 -12.27,2.7c-16.16,0 -29.26,-13.1 -29.26,-29.26l0,-214.21l24.54,0l0,214.21c0,11.78 6.96,21.93 16.99,26.56z"/>
     <path id="svg_8" fill="#c6865c" d="m105.421,133.777l201.52,0l0,137.007l-201.52,0l0,-137.007z"/>
     <path id="svg_9" fill="#aa7a63" d="m269.696,133.777l37.245,0l0,137.007l-37.245,0l0,-137.007z"/>
     <path id="svg_10" fill="#aa7a63" d="m105.421,228.837l201.52,0l0,41.947l-201.52,0l0,-41.947z"/>
     <path id="svg_11" fill="#c6865c" d="m97.44,296.722c-14.325,0 -25.938,-11.613 -25.938,-25.938l0,-137.007c0,-14.325 11.613,-25.938 25.938,-25.938c14.325,0 25.938,11.613 25.938,25.938l0,137.007c0,14.325 -11.613,25.938 -25.938,25.938z"/>
     <path id="svg_12" fill="#aa7a63" d="m123.38,209.602l0,61.19c0,14.32 -11.61,25.93 -25.94,25.93c-14.32,0 -25.94,-11.61 -25.94,-25.93l0,-61.19c0,14.32 11.62,25.94 25.94,25.94c14.33,0 25.94,-11.62 25.94,-25.94z"/>
     <path id="svg_13" fill="#c6865c" d="m314.922,296.722c-14.325,0 -25.938,-11.613 -25.938,-25.938l0,-137.007c0,-14.325 11.613,-25.938 25.938,-25.938c14.325,0 25.938,11.613 25.938,25.938l0,137.007c0,14.325 -11.613,25.938 -25.938,25.938z"/>
     <path id="svg_14" fill="#aa7a63" d="m340.862,209.602l0,61.19c0,14.32 -11.61,25.93 -25.94,25.93c-14.32,0 -25.94,-11.61 -25.94,-25.93l0,-61.19c0,14.32 11.62,25.94 25.94,25.94c14.33,0 25.94,-11.62 25.94,-25.94z"/>
     <path id="svg_15" fill="#c6865c" d="m245.088,308.694l-77.815,0c-10.468,0 -18.955,-8.486 -18.955,-18.955c0,-10.468 8.486,-18.955 18.955,-18.955l77.815,0c10.468,0 18.955,8.486 18.955,18.955c0,10.468 -8.486,18.955 -18.955,18.955z"/>
     <path id="svg_16" fill="#aa7a63" d="m205.199,308.689l-37.92,0c-10.47,0 -18.96,-8.48 -18.96,-18.95c0,-5.23 2.12,-9.97 5.55,-13.41c3.43,-3.43 8.17,-5.55 13.41,-5.55l37.92,0c-5.24,0 -9.98,2.12 -13.41,5.55c-3.43,3.44 -5.55,8.18 -5.55,13.41c0,10.47 8.49,18.95 18.96,18.95z"/>
    </g>
    <path id="svg_17" fill="#c6865c" d="m539.95,475.06l-237.673,0c-15.768,0 -28.55,12.783 -28.55,28.55c0,15.768 12.782,28.551 28.55,28.551l237.673,0c15.768,0 28.55,-12.783 28.55,-28.551c0,-15.767 -12.783,-28.55 -28.55,-28.55z"/>
    <path id="svg_18" fill="#aa7a63" d="m351.256,523.801c5.16,5.17 12.3,8.36 20.19,8.36l-69.17,0c-7.88,0 -15.02,-3.19 -20.19,-8.36s-8.36,-12.31 -8.36,-20.19c0,-15.76 12.78,-28.55 28.55,-28.55l69.17,0c-15.77,0 -28.56,12.79 -28.56,28.55c0.001,7.88 3.2,15.02 8.37,20.19z"/>
    <g id="svg_19">
     <circle id="svg_20" r="66.95999" fill="#ffd064" cy="335.397" cx="421.113"/>
     <path id="svg_21" fill="#ffc250" d="m429.162,401.874c-2.641,0.321 -5.33,0.482 -8.051,0.482c-36.979,0 -66.958,-29.979 -66.958,-66.958s29.98,-66.959 66.958,-66.959c2.721,0 5.41,0.161 8.051,0.482c-33.19,3.973 -58.916,32.219 -58.916,66.477s25.726,62.502 58.916,66.476z"/>
    </g>
   </g>
   <g id="svg_22">
    <path id="svg_23" d="m268.932,278.284l13.41,0c3.415,14.837 16.72,25.938 32.58,25.938c18.438,0 33.438,-15 33.438,-33.438l0,-137.007c0,-18.438 -15,-33.438 -33.438,-33.438c-15.859,0 -29.165,11.101 -32.58,25.938l-152.311,0c-1.384,-6.071 -4.438,-11.64 -8.942,-16.135c-6.309,-6.321 -14.707,-9.802 -23.649,-9.802c-18.439,0 -33.44,15.001 -33.44,33.44l0,19.44c0,4.142 3.357,7.5 7.5,7.5s7.5,-3.358 7.5,-7.5l0,-19.44c0,-10.168 8.272,-18.44 18.44,-18.44c4.929,0 9.557,1.917 13.042,5.409c3.476,3.468 5.391,8.087 5.396,13.01c0,0.006 -0.001,0.012 -0.001,0.018l0,137.007c0,0.006 0.001,0.011 0.001,0.017c-0.012,10.158 -8.278,18.419 -18.438,18.419c-10.168,0 -18.44,-8.272 -18.44,-18.44l0,-87.56c0,-4.142 -3.357,-7.5 -7.5,-7.5s-7.5,3.358 -7.5,7.5l0,87.56c0,18.439 15.001,33.44 33.44,33.44c15.858,0 29.164,-11.1 32.58,-25.936l13.409,0c-1.673,3.468 -2.611,7.354 -2.611,11.455c0,14.587 11.868,26.455 26.455,26.455l2.144,0l0,186.704c0,20.271 16.492,36.764 36.764,36.764s36.764,-16.492 36.764,-36.764l0,-186.704l2.144,0c14.587,0 26.455,-11.868 26.455,-26.455c-0.001,-4.101 -0.939,-7.987 -2.612,-11.455zm45.99,-162.945c10.167,0 18.438,8.271 18.438,18.438l0,137.007c0,10.167 -8.271,18.438 -18.438,18.438s-18.438,-8.271 -18.438,-18.438l0,-137.007c-0.001,-10.167 8.271,-18.438 18.438,-18.438zm-33.439,147.945l-150.603,0l0,-122.007l150.604,0l0,122.007l-0.001,0zm-53.539,239.613c0,12 -9.763,21.764 -21.764,21.764s-21.764,-9.763 -21.764,-21.764l0,-186.703l43.527,0l0,186.703l0.001,0zm17.144,-201.703l-9.644,0l-58.527,0l-9.644,0c-6.316,0 -11.455,-5.139 -11.455,-11.455s5.139,-11.455 11.455,-11.455l77.814,0c6.316,0 11.455,5.139 11.455,11.455c0.001,6.316 -5.138,11.455 -11.454,11.455z"/>
    <path id="svg_24" d="m543.55,467.74l0,-12.15c0,-16.525 -13.444,-29.97 -29.97,-29.97l-30.65,0c-4.143,0 -7.5,3.358 -7.5,7.5s3.357,7.5 7.5,7.5l30.65,0c8.254,0 14.97,6.715 14.97,14.97l0,11.97l-214.87,0l0,-11.97c0,-8.254 6.711,-14.97 14.96,-14.97l124.29,0c4.143,0 7.5,-3.358 7.5,-7.5s-3.357,-7.5 -7.5,-7.5l-124.29,0c-16.52,0 -29.96,13.444 -29.96,29.97l0,12.15c-18.196,1.811 -32.453,17.206 -32.453,35.871c0,19.878 16.172,36.05 36.05,36.05l237.673,0c19.879,0 36.051,-16.172 36.051,-36.05c-0.001,-18.663 -14.257,-34.058 -32.451,-35.871zm-3.601,56.921l-237.673,0c-11.606,0 -21.05,-9.443 -21.05,-21.05s9.443,-21.051 21.05,-21.051l237.673,0c11.607,0 21.051,9.443 21.051,21.051s-9.443,21.05 -21.051,21.05z"/>
    <path id="svg_25" d="m421.113,409.857c41.058,0 74.46,-33.403 74.46,-74.46c0,-41.058 -33.402,-74.46 -74.46,-74.46s-74.461,33.403 -74.461,74.46s33.404,74.46 74.461,74.46zm0,-133.92c32.786,0 59.46,26.674 59.46,59.46s-26.674,59.46 -59.46,59.46c-32.787,0 -59.461,-26.674 -59.461,-59.46c0,-32.787 26.674,-59.46 59.461,-59.46z"/>
    <path id="svg_26" d="m401.771,365.632c4.368,2.858 7.709,4.202 11.486,4.799l0,1.154c0,4.142 3.357,7.5 7.5,7.5s7.5,-3.358 7.5,-7.5l0,-1.985c8.543,-2.923 14.013,-10.543 15.28,-18.083c1.759,-10.463 -3.908,-19.914 -14.1,-23.516c-5.119,-1.81 -10.766,-3.984 -13.827,-6.385c-0.442,-0.346 -0.742,-1.534 -0.481,-2.921c0.137,-0.726 0.769,-3.15 3.147,-3.867c5.305,-1.599 8.703,1.052 9.073,1.36c3.183,2.649 7.912,2.217 10.562,-0.967c2.649,-3.184 2.217,-7.913 -0.967,-10.562c-2.178,-1.813 -5.163,-3.455 -8.688,-4.425l0,-1.026c0,-4.142 -3.357,-7.5 -7.5,-7.5s-7.5,3.358 -7.5,7.5l0,1.494c-6.612,2.273 -11.515,8.033 -12.868,15.215c-1.299,6.892 0.986,13.598 5.964,17.502c4.756,3.73 11.503,6.397 18.086,8.725c4.262,1.506 4.694,4.577 4.306,6.887c-0.549,3.268 -3.299,6.799 -8.038,6.831c-5.347,0.03 -6.752,-0.184 -10.723,-2.781c-3.468,-2.269 -8.115,-1.297 -10.383,2.17c-2.267,3.465 -1.295,8.114 2.171,10.381z"/>
   </g>
  </g>
 </g>
</svg>