<?xml version="1.0" standalone="no"?>
<!DOCTYPE svg PUBLIC "-//W3C//DTD SVG 20010904//EN"
 "http://www.w3.org/TR/2001/REC-SVG-20010904/DTD/svg10.dtd">
<svg version="1.0" xmlns="http://www.w3.org/2000/svg"
 width="3425.000000pt" height="2072.000000pt" viewBox="0 0 3425.000000 2072.000000"
 preserveAspectRatio="xMidYMid meet">

<g transform="translate(0.000000,2072.000000) scale(0.100000,-0.100000)"
fill="#000000" stroke="none">
<path d="M13085 16746 c-27 -7 -99 -23 -160 -36 -60 -12 -157 -33 -215 -45
-58 -13 -163 -35 -235 -50 -71 -15 -136 -31 -143 -35 -9 -4 15 -27 75 -69 715
-503 713 -501 713 -510 0 -5 -10 -34 -22 -67 -20 -53 -22 -77 -22 -239 0 -154
3 -193 22 -270 65 -255 136 -397 261 -519 l51 -50 -221 -434 c-121 -239 -218
-436 -215 -439 3 -3 40 4 83 17 43 12 108 30 146 41 37 10 97 28 135 38 182
52 456 131 458 133 3 4 247 446 283 515 32 59 33 65 22 105 -7 24 -21 79 -32
123 -11 44 -28 115 -39 158 -11 42 -28 113 -39 157 -11 44 -29 116 -40 160
-11 44 -29 115 -40 158 -11 42 -28 113 -39 157 -25 98 -56 222 -80 320 -11 44
-30 118 -42 165 -11 47 -26 106 -32 132 -6 26 -16 49 -23 52 -7 2 -86 53 -176
112 -300 197 -359 234 -372 233 -6 0 -34 -7 -62 -13z"/>
<path d="M14540 16166 c-73 -16 -127 -45 -179 -97 -224 -225 -110 -587 206
-650 54 -11 72 -10 137 5 157 37 270 154 296 307 35 207 -99 400 -305 438 -70
13 -84 13 -155 -3z"/>
<path d="M27060 11160 c-65 -10 -142 -42 -186 -75 -61 -46 -66 -142 -14 -245
10 -20 22 -61 25 -91 15 -117 46 -276 66 -329 32 -86 38 -90 129 -83 70 5 79
4 99 -16 27 -27 28 -99 1 -200 -35 -132 -24 -179 50 -217 52 -26 178 -31 236
-9 216 82 571 606 577 849 1 51 -2 59 -44 113 -127 164 -453 298 -753 308 -72
2 -156 0 -186 -5z"/>
<path d="M12950 10949 c-25 -5 -97 -10 -160 -13 -182 -6 -301 -56 -420 -175
-128 -128 -210 -288 -263 -511 -17 -70 -21 -124 -22 -307 -2 -122 -6 -244 -9
-270 -12 -78 -45 -183 -87 -268 -35 -73 -65 -116 -219 -315 -144 -187 -185
-388 -105 -524 30 -51 120 -139 137 -134 6 2 41 78 78 169 36 90 77 186 90
213 49 96 141 150 385 225 159 50 203 73 249 134 33 43 56 134 56 223 0 100
-2 104 -58 98 -66 -7 -102 18 -141 98 -51 104 -101 338 -101 472 0 117 44 261
106 342 21 29 108 94 125 94 4 0 28 -38 52 -84 148 -278 271 -381 490 -411
l47 -6 0 -88 c0 -49 -7 -109 -15 -137 -39 -128 5 -445 77 -559 38 -60 92 -93
194 -116 49 -11 127 -29 174 -40 47 -11 127 -40 180 -66 76 -38 109 -62 175
-127 44 -45 86 -90 92 -101 10 -17 13 -18 23 -5 53 75 60 330 16 545 -28 132
-32 149 -93 340 -71 224 -243 595 -373 805 -130 209 -265 371 -360 432 -82 53
-231 84 -320 67z"/>
<path d="M5245 9124 c-120 -32 -207 -84 -310 -188 -101 -102 -172 -202 -240
-341 -68 -139 -100 -242 -129 -415 -23 -132 -33 -167 -68 -237 -44 -88 -130
-184 -237 -265 -168 -127 -304 -240 -365 -302 -264 -269 -363 -588 -273 -878
37 -118 138 -284 151 -248 3 8 29 83 57 165 122 356 271 679 362 785 118 136
364 236 677 275 30 4 61 12 68 18 37 30 89 177 117 330 13 72 14 97 4 146 -10
47 -10 77 2 157 l14 99 125 7 c178 9 301 58 532 211 l121 80 18 -24 c56 -73
82 -179 83 -339 0 -116 -2 -132 -32 -218 -69 -199 -143 -326 -210 -358 -28
-13 -42 -14 -79 -4 -56 13 -63 8 -74 -57 -16 -99 -16 -100 49 -113 97 -19 273
-79 361 -122 91 -45 191 -129 211 -178 7 -16 16 -27 21 -24 16 10 75 119 97
180 49 135 64 246 64 454 0 202 -16 343 -63 540 -86 372 -243 669 -399 756
-105 59 -307 103 -500 109 -74 2 -144 2 -155 -1z"/>
<path d="M13364 8052 c-61 -53 -173 -151 -249 -217 -76 -66 -198 -172 -270
-235 -72 -63 -162 -141 -198 -173 -37 -32 -67 -62 -67 -67 0 -5 68 -86 150
-180 83 -94 150 -175 150 -181 0 -5 -49 -9 -112 -9 -128 0 -146 -6 -128 -40 7
-13 12 -45 12 -71 0 -86 -57 -152 -132 -152 -106 0 -171 137 -113 236 l22 36
-67 22 c-36 12 -81 31 -100 42 -28 17 -35 18 -43 6 -18 -29 -15 -123 7 -190
14 -43 13 -49 -16 -145 -44 -141 -155 -533 -180 -634 -72 -292 -94 -431 -87
-560 8 -141 51 -539 106 -980 11 -85 27 -210 35 -278 9 -68 18 -127 21 -131 5
-9 18 -99 55 -386 18 -139 27 -211 80 -605 18 -137 30 -229 80 -585 11 -82 27
-201 35 -263 8 -62 19 -141 25 -175 5 -34 21 -147 35 -252 44 -327 65 -478 75
-540 5 -33 19 -125 30 -205 37 -271 42 -295 62 -330 29 -48 64 -85 121 -127
26 -19 47 -42 47 -51 0 -28 -56 -116 -98 -154 -85 -77 -208 -134 -377 -174
-144 -34 -184 -60 -209 -137 -5 -16 -36 -17 -503 -15 l-498 3 -7 175 c-3 96
-11 456 -17 800 -6 344 -16 801 -21 1015 -13 514 -29 1299 -37 1871 l-6 462
87 3 c81 4 90 6 111 31 40 47 46 198 10 255 -31 47 -19 47 -1198 40 -609 -3
-1965 -3 -3012 0 l-1905 6 0 40 0 40 -36 -6 c-20 -4 -154 -14 -298 -23 -143
-9 -264 -21 -267 -27 -4 -5 -21 -59 -38 -121 -92 -331 -114 -476 -115 -736 0
-190 2 -213 27 -313 46 -186 86 -247 186 -282 36 -12 105 -15 387 -15 188 0
345 -3 347 -7 2 -5 0 -163 -4 -353 -5 -190 -15 -705 -24 -1145 -9 -440 -20
-964 -25 -1165 -5 -201 -9 -407 -10 -457 l0 -93 -2523 0 c-2432 0 -2525 -1
-2540 -18 -21 -23 -22 -71 -1 -100 l15 -22 16803 0 c16266 0 16803 1 16819 18
23 25 22 85 -1 105 -17 16 -213 17 -2621 17 -2409 0 -2603 1 -2597 16 7 19 43
226 52 296 3 33 10 48 20 48 26 0 19 517 -16 1135 -11 192 -18 282 -45 565
-34 362 -89 680 -168 970 -113 418 -146 1266 -87 2260 11 184 20 341 20 348 0
7 -23 -3 -52 -24 -335 -230 -1247 -247 -1696 -32 -46 22 -86 37 -89 34 -7 -6
24 -818 38 -1021 5 -77 16 -237 24 -355 8 -118 17 -228 20 -245 2 -16 9 -88
15 -160 19 -233 65 -633 126 -1090 13 -104 31 -248 39 -320 9 -71 17 -141 20
-155 12 -61 57 -562 75 -840 20 -299 30 -993 14 -1033 -4 -11 0 -19 10 -23 25
-10 19 -27 -21 -65 -114 -107 -251 -173 -450 -219 -36 -8 -66 -24 -97 -51
l-44 -39 -5841 0 c-3213 0 -5841 2 -5841 5 0 2 13 24 30 47 16 24 39 79 50
123 23 89 54 139 155 254 36 41 70 91 76 112 23 74 -16 159 -127 280 -84 92
-81 80 -88 313 -6 207 -38 604 -56 701 -5 28 -12 75 -15 105 -31 260 -138 721
-280 1195 -52 173 -75 268 -95 379 -21 124 -48 420 -54 596 -2 63 -9 205 -15
315 -6 110 -15 301 -22 425 -30 607 -40 765 -53 880 -16 132 -48 246 -112 395
-20 46 -34 88 -32 93 3 8 63 63 173 158 229 198 430 376 433 383 1 4 -32 47
-74 95 l-76 87 -27 -18 c-185 -122 -362 -200 -630 -277 -167 -48 -255 -67
-274 -60 -12 4 -40 -16 -94 -66 -74 -69 -157 -130 -175 -130 -36 0 -117 154
-121 229 -2 45 -2 46 48 72 28 15 94 36 148 47 l97 20 87 79 c48 43 135 120
193 172 156 141 289 272 312 309 18 29 19 37 8 82 -10 40 -31 71 -113 167
-156 182 -366 421 -375 427 -4 2 -58 -39 -118 -92z m-3641 -3569 l977 -6 0
-73 c0 -39 4 -116 10 -170 11 -115 24 -340 45 -759 8 -165 19 -379 25 -475 6
-96 17 -310 26 -475 14 -290 30 -606 74 -1450 12 -220 27 -515 34 -655 8 -140
12 -258 9 -262 -2 -5 -859 -8 -1903 -8 l-1898 0 -11 33 c-6 17 -33 70 -60 116
-46 78 -52 85 -117 118 -188 95 -284 201 -443 486 -99 178 -105 187 -118 187
-16 0 -110 -76 -123 -99 -5 -11 -10 -37 -10 -59 0 -56 54 -127 189 -248 79
-70 131 -127 173 -187 75 -110 203 -241 292 -298 l69 -44 -813 -3 c-447 -1
-815 0 -818 3 -3 3 0 89 7 192 6 104 18 330 26 503 8 173 17 338 20 365 3 28
9 160 15 295 6 135 15 313 20 395 6 83 17 290 25 460 12 252 53 993 54 1003 1
1 258 2 573 2 l571 0 71 53 c94 71 188 163 271 265 64 79 105 115 105 93 0 -6
-9 -34 -21 -63 -43 -109 -125 -393 -155 -533 -94 -453 -169 -935 -235 -1514
-10 -96 -16 -86 92 -145 83 -45 201 -76 289 -76 80 0 59 -35 187 315 53 143
106 287 118 320 20 53 85 230 162 435 13 36 39 108 58 160 63 178 138 375 146
384 4 5 20 -6 36 -25 107 -129 421 -443 699 -699 199 -183 388 -354 519 -469
170 -149 148 -141 332 -120 96 10 159 33 212 76 l23 19 -86 169 c-113 224
-285 549 -469 885 -313 574 -734 1272 -923 1531 -18 25 -31 49 -27 53 8 8 450
8 1676 -1z m3606 -1618 c65 -165 281 -643 449 -995 432 -906 437 -915 536
-942 l43 -11 -3 -214 c-2 -189 -5 -222 -25 -281 -30 -90 -91 -153 -171 -177
-56 -16 -98 -51 -98 -81 0 -12 -78 -14 -461 -14 l-461 0 7 22 c4 13 11 187 15
388 4 201 10 376 14 390 3 14 12 138 21 275 8 138 20 320 25 405 14 204 37
662 52 1032 13 318 12 317 57 203z m14415 -955 c139 -489 245 -938 299 -1271
20 -122 24 -134 45 -139 13 -3 24 -9 25 -15 0 -5 -28 -34 -64 -62 -102 -83
-249 -150 -406 -183 -36 -8 -65 -23 -96 -51 l-45 -39 -97 0 c-89 0 -96 1 -91
18 12 37 46 228 46 257 0 60 10 75 45 75 32 0 33 1 44 58 5 31 22 118 36 192
14 74 32 176 39 225 52 325 75 477 81 525 3 30 12 100 20 155 8 55 21 170 30
255 16 157 23 205 30 199 1 -2 28 -92 59 -199z"/>
<path d="M10080 1400 c-152 -77 -314 -97 -525 -65 -55 9 -140 18 -189 22 l-88
6 4 -73 c3 -66 7 -75 35 -100 51 -46 143 -48 327 -5 45 11 130 17 254 19 255
4 389 37 475 119 63 58 50 74 -73 95 -138 23 -139 23 -220 -18z"/>
<path d="M12473 6965 c-73 -51 -37 -185 50 -185 46 0 77 40 77 100 0 41 -5 56
-25 75 -28 29 -70 32 -102 10z"/>
<path d="M21810 5183 c-28 -10 -52 -38 -76 -87 -32 -66 -31 -74 14 -81 20 -4
48 -10 62 -15 73 -25 452 -42 465 -21 3 6 0 31 -6 56 -17 67 -42 80 -154 81
-100 1 -146 11 -219 49 -50 26 -60 28 -86 18z"/>
</g>
</svg>
