<?xml version="1.0" standalone="no"?>
<!DOCTYPE svg PUBLIC "-//W3C//DTD SVG 20010904//EN"
 "http://www.w3.org/TR/2001/REC-SVG-20010904/DTD/svg10.dtd">
<svg version="1.0" xmlns="http://www.w3.org/2000/svg"
 width="3392.000000pt" height="1926.000000pt" viewBox="0 0 3392.000000 1926.000000"
 preserveAspectRatio="xMidYMid meet">

<g transform="translate(0.000000,1926.000000) scale(0.100000,-0.100000)"
fill="#000000" stroke="none">
<path d="M12690 16595 c-135 -29 -312 -67 -395 -85 -82 -17 -151 -33 -153 -35
-5 -4 54 -47 451 -324 191 -134 347 -249 347 -256 0 -6 -10 -38 -21 -71 -34
-91 -38 -304 -9 -444 54 -266 141 -455 268 -577 l53 -52 -221 -436 c-122 -240
-220 -438 -218 -440 7 -7 812 226 825 238 6 7 46 75 89 152 42 77 110 200 150
274 41 74 74 139 74 144 0 21 -393 1584 -403 1604 -7 13 -106 84 -222 159
-115 75 -233 152 -261 170 -31 20 -63 34 -80 33 -16 0 -139 -25 -274 -54z"/>
<path d="M14307 16046 c-175 -73 -270 -248 -232 -429 25 -122 100 -216 215
-271 59 -28 74 -31 160 -30 81 0 104 4 153 27 69 31 154 114 185 179 95 195
12 424 -186 516 -83 39 -213 43 -295 8z"/>
<path d="M26910 11059 c-238 -29 -322 -135 -242 -307 23 -51 34 -97 47 -194
18 -140 44 -242 73 -291 19 -32 19 -32 95 -29 137 5 155 -30 112 -219 -39
-167 -24 -201 102 -234 89 -23 131 -19 210 20 182 91 430 425 523 704 40 119
39 165 -3 227 -112 163 -403 293 -726 324 -106 11 -100 11 -191 -1z"/>
<path d="M12745 10840 c-16 -4 -76 -8 -132 -9 -343 -4 -586 -254 -690 -711
-13 -58 -16 -116 -15 -250 1 -96 -3 -218 -8 -270 -19 -166 -79 -314 -183 -451
-205 -270 -246 -340 -267 -460 -14 -80 -1 -163 34 -223 30 -51 135 -152 145
-140 5 5 32 70 61 144 109 274 128 304 233 366 33 19 123 55 201 80 216 69
227 74 271 119 63 63 86 134 83 254 l-3 96 -61 5 c-71 6 -95 22 -129 90 -48
95 -105 354 -105 474 1 187 89 368 209 430 l31 16 36 -72 c90 -181 222 -336
326 -383 29 -13 91 -30 138 -37 l85 -14 -4 -100 c-2 -57 -10 -115 -19 -138
-31 -78 9 -412 63 -515 40 -79 113 -130 215 -150 30 -6 88 -18 129 -26 193
-38 362 -138 464 -273 l42 -55 17 39 c39 89 47 238 24 414 -69 515 -449 1322
-765 1623 -112 107 -292 161 -426 127z"/>
<path d="M5040 9011 c-226 -61 -442 -297 -575 -627 -45 -112 -62 -175 -81
-308 -24 -169 -68 -273 -158 -373 -25 -28 -124 -111 -218 -184 -292 -226 -425
-369 -512 -552 -69 -145 -81 -200 -80 -362 0 -124 3 -149 27 -220 24 -74 72
-162 123 -230 l21 -28 57 169 c96 278 216 559 303 705 77 130 182 213 353 278
81 31 232 68 335 82 50 6 100 18 112 25 66 41 159 371 132 469 -11 38 -8 132
7 225 l7 40 71 0 c83 0 178 14 244 36 80 27 241 112 350 184 57 39 108 70 113
70 18 0 61 -84 80 -158 15 -55 21 -111 21 -197 1 -114 -1 -126 -37 -230 -62
-183 -135 -309 -196 -340 -24 -13 -45 -15 -90 -10 -33 4 -59 5 -59 3 -1 -1 -7
-36 -14 -76 -9 -51 -9 -75 -2 -80 6 -5 47 -17 91 -26 243 -56 460 -169 521
-271 14 -25 29 -45 33 -45 14 0 75 114 102 188 95 271 81 709 -37 1117 -75
262 -178 461 -296 574 -79 76 -223 125 -458 155 -157 20 -208 19 -290 -3z"/>
<path d="M12849 7654 c-244 -213 -445 -390 -447 -395 -2 -5 66 -88 151 -186
179 -205 179 -190 0 -192 -57 0 -103 -3 -103 -5 0 -2 7 -20 15 -39 20 -48 19
-83 -5 -134 -40 -90 -139 -109 -208 -40 -31 32 -36 43 -40 96 -4 49 0 67 17
96 11 20 21 38 21 40 0 2 -15 6 -32 10 -18 4 -63 21 -101 37 -37 17 -70 28
-74 25 -15 -16 -15 -121 1 -181 17 -61 17 -63 -8 -141 -103 -327 -210 -738
-252 -967 l-28 -150 22 -241 c20 -218 38 -372 86 -767 8 -69 22 -183 31 -255
8 -71 22 -166 30 -210 18 -101 28 -172 60 -420 32 -252 60 -461 85 -640 10
-77 29 -210 40 -295 40 -297 71 -526 85 -625 8 -55 35 -248 60 -430 90 -650
126 -890 137 -920 15 -37 99 -128 145 -156 37 -23 41 -44 17 -92 -66 -127
-233 -229 -455 -278 -50 -11 -106 -26 -123 -33 -38 -16 -86 -70 -86 -97 0 -11
-9 -21 -22 -24 -13 -3 -239 -4 -503 -3 l-480 3 -6 250 c-4 138 -12 509 -18
825 -6 316 -16 769 -21 1005 -14 579 -38 1881 -40 2081 l-1 161 78 5 c127 7
153 37 153 173 0 86 -1 88 -34 121 l-34 34 -2528 0 c-1391 0 -2757 3 -3036 6
l-508 7 0 34 c0 31 -2 33 -35 33 -19 0 -78 -5 -132 -11 -54 -6 -173 -13 -263
-17 -195 -8 -169 15 -229 -211 -74 -276 -94 -416 -95 -656 0 -222 6 -278 50
-413 34 -105 64 -146 133 -179 l56 -28 353 3 352 4 0 -129 c0 -190 -41 -2200
-58 -2848 l-7 -250 -665 -2 c-366 -1 -1494 -2 -2507 -2 -1836 -1 -1843 -1
-1843 -21 0 -20 7 -20 16800 -20 9240 0 16800 3 16800 8 -1 35 63 34 -2619 34
-1431 0 -2603 4 -2606 8 -3 5 1 36 9 70 8 34 20 111 27 170 11 94 16 109 33
114 19 5 19 13 12 313 -24 1079 -101 1854 -231 2307 -50 176 -79 352 -107 656
-27 292 -14 1492 22 1910 4 52 6 97 4 99 -2 2 -18 -7 -36 -21 -160 -121 -482
-191 -883 -191 -358 1 -635 51 -830 152 -38 20 -73 37 -77 39 -19 9 -4 -496
32 -1068 39 -637 81 -1051 184 -1840 113 -867 150 -1339 150 -1947 1 -316 4
-403 14 -403 24 0 11 -19 -45 -70 -102 -91 -233 -155 -411 -201 -66 -17 -91
-29 -120 -57 l-37 -36 -5842 -2 c-3214 -1 -5843 0 -5843 3 0 2 11 19 25 37 26
34 57 114 69 176 7 42 47 100 135 201 101 115 112 165 60 265 -16 32 -66 99
-110 149 l-79 89 0 121 c0 237 -30 612 -71 890 -53 361 -133 698 -292 1240
-108 367 -122 495 -173 1615 -18 411 -41 803 -54 930 -13 126 -41 231 -97 365
-25 61 -46 118 -47 127 0 11 109 114 304 283 168 147 305 268 305 270 0 2 -35
44 -78 93 l-77 90 -68 -45 c-83 -56 -211 -121 -328 -166 -172 -67 -468 -150
-520 -145 -27 2 -44 -9 -110 -68 -154 -137 -176 -146 -218 -91 -32 42 -72 134
-81 185 -6 35 -3 42 20 60 31 25 126 57 214 72 36 7 70 17 75 25 6 7 49 46 96
86 166 143 421 383 460 432 46 58 50 85 17 148 -21 42 -462 559 -477 559 -4 0
-207 -174 -451 -386z m-2442 -3284 l111 0 6 -117 c4 -65 11 -167 16 -228 5
-60 17 -249 25 -420 8 -170 22 -431 30 -580 20 -364 60 -1144 95 -1830 11
-214 22 -426 25 -470 14 -203 34 -668 29 -676 -3 -6 -774 -9 -1902 -8 l-1897
1 -49 99 c-27 55 -59 109 -71 122 -12 12 -60 42 -105 67 -163 88 -280 224
-430 501 -35 65 -71 127 -80 139 l-16 21 -49 -37 c-102 -75 -114 -127 -50
-219 36 -53 70 -87 198 -198 37 -33 91 -93 119 -135 68 -102 225 -262 307
-315 l66 -42 -809 -3 c-500 -1 -814 2 -819 7 -6 6 -5 89 2 223 7 117 18 344
26 503 8 160 17 326 20 370 3 44 14 258 25 475 11 217 29 564 40 770 11 206
24 476 30 600 6 124 14 236 18 248 l7 24 570 4 570 5 54 37 c79 54 202 173
282 273 61 77 94 107 105 96 2 -1 -17 -61 -42 -132 -103 -294 -201 -751 -279
-1305 -9 -58 -22 -150 -30 -205 -8 -55 -17 -127 -20 -160 -4 -33 -13 -105 -20
-160 -8 -55 -15 -131 -17 -170 l-3 -69 60 -36 c121 -72 249 -104 359 -90 l40
5 86 235 c48 129 89 242 93 250 4 8 38 103 77 210 39 107 77 209 84 225 7 17
67 177 132 358 66 180 123 327 128 327 5 0 27 -21 50 -47 155 -179 436 -455
806 -794 239 -218 504 -453 536 -475 17 -12 42 -12 144 -4 129 11 208 36 257
81 26 25 33 7 -121 304 -514 990 -880 1623 -1350 2329 l-20 29 1220 -7 c670
-4 1269 -6 1331 -6z m2747 -1617 c53 -133 263 -605 374 -838 49 -104 111 -235
137 -290 26 -55 118 -245 205 -421 141 -287 162 -325 197 -348 21 -15 55 -29
75 -32 l37 -6 -3 -222 c-3 -176 -7 -231 -21 -271 -36 -104 -73 -144 -171 -184
-53 -21 -75 -36 -93 -64 l-24 -37 -455 0 -454 0 6 22 c18 62 26 218 20 373 -4
103 -2 221 5 300 29 334 95 1487 107 1893 4 122 10 222 13 222 4 0 24 -44 45
-97z m14413 -976 c140 -497 268 -1056 308 -1340 5 -41 9 -47 31 -47 36 0 30
-14 -28 -63 -103 -86 -234 -148 -411 -192 -52 -13 -78 -27 -110 -56 l-41 -39
-87 0 c-50 0 -91 5 -94 10 -4 6 0 39 9 73 8 34 20 108 27 164 l12 103 33 0
c22 0 34 6 38 18 16 48 101 545 145 845 37 249 91 690 91 743 0 2 3 4 8 4 4 0
35 -100 69 -223z"/>
<path d="M9922 1305 c-68 -39 -170 -71 -264 -85 -90 -12 -182 -7 -413 26 -154
21 -145 24 -145 -45 0 -77 12 -106 52 -131 46 -28 143 -26 289 4 94 20 146 24
270 24 243 0 392 36 475 116 24 24 44 48 44 55 0 19 -58 38 -155 50 -114 14
-103 15 -153 -14z"/>
<path d="M12289 6851 c-44 -44 -43 -112 2 -153 48 -45 100 -33 125 28 20 48 9
98 -28 129 -39 33 -63 32 -99 -4z"/>
<path d="M4231 5584 c0 -11 3 -14 6 -6 3 7 2 16 -1 19 -3 4 -6 -2 -5 -13z"/>
<path d="M4243 5505 c0 -22 2 -30 4 -17 2 12 2 30 0 40 -3 9 -5 -1 -4 -23z"/>
<path d="M4250 5345 c0 -8 4 -15 10 -15 5 0 7 7 4 15 -4 8 -8 15 -10 15 -2 0
-4 -7 -4 -15z"/>
<path d="M5138 5093 c7 -3 16 -2 19 1 4 3 -2 6 -13 5 -11 0 -14 -3 -6 -6z"/>
<path d="M21619 5074 c-33 -21 -65 -69 -77 -117 -10 -35 -9 -39 11 -47 62 -26
394 -60 487 -51 51 6 55 8 58 35 2 15 -2 41 -8 57 -20 48 -49 59 -168 62 -101
3 -112 5 -183 40 -87 42 -85 42 -120 21z"/>
<path d="M5218 4853 c6 -2 18 -2 25 0 6 3 1 5 -13 5 -14 0 -19 -2 -12 -5z"/>
</g>
</svg>
